<svg width="32" height="32" viewBox="0 0 32 32" fill="none" xmlns="http://www.w3.org/2000/svg">
<path d="M15.9844 2.65234C15.4326 2.66096 14.9921 3.11488 15 3.66666V5.66666C14.9949 6.0273 15.1844 6.36274 15.4959 6.54455C15.8074 6.72635 16.1926 6.72635 16.5041 6.54455C16.8156 6.36274 17.0051 6.0273 17 5.66666V3.66666C17.0039 3.39625 16.8981 3.1358 16.7067 2.94469C16.5154 2.75358 16.2548 2.64812 15.9844 2.65234ZM7.26822 6.26953C6.86112 6.26963 6.49471 6.51647 6.3417 6.89372C6.18869 7.27097 6.27961 7.70331 6.57161 7.98697L7.98567 9.40103C8.37651 9.79187 9.01018 9.79187 9.40103 9.40103C9.79187 9.01019 9.79187 8.37651 9.40103 7.98567L7.98697 6.57161C7.79812 6.37783 7.5388 6.26884 7.26822 6.26953ZM24.7005 6.26953C24.4408 6.27709 24.1942 6.38544 24.013 6.57161L22.5989 7.98567C22.2081 8.37651 22.2081 9.01019 22.5989 9.40104C22.9898 9.79188 23.6235 9.79188 24.0143 9.40104L25.4284 7.98698C25.7248 7.6994 25.814 7.25917 25.6528 6.87889C25.4917 6.49861 25.1133 6.25651 24.7005 6.26953ZM16 8.66666C11.9499 8.66666 8.66666 11.9499 8.66666 16C8.66666 20.0501 11.9499 23.3333 16 23.3333C20.0501 23.3333 23.3333 20.0501 23.3333 16C23.3333 11.9499 20.0501 8.66666 16 8.66666ZM3.66666 15C3.30603 14.9949 2.97058 15.1844 2.78877 15.4959C2.60697 15.8074 2.60697 16.1926 2.78877 16.5041C2.97058 16.8156 3.30603 17.0051 3.66666 17H5.66666C6.02729 17.0051 6.36274 16.8156 6.54455 16.5041C6.72635 16.1926 6.72635 15.8074 6.54455 15.4959C6.36274 15.1844 6.02729 14.9949 5.66666 15H3.66666ZM26.3333 15C25.9727 14.9949 25.6372 15.1844 25.4554 15.4959C25.2736 15.8074 25.2736 16.1926 25.4554 16.5041C25.6372 16.8156 25.9727 17.0051 26.3333 17H28.3333C28.6939 17.0051 29.0294 16.8156 29.2112 16.5041C29.393 16.1926 29.393 15.8074 29.2112 15.4959C29.0294 15.1844 28.6939 14.9949 28.3333 15H26.3333ZM8.67317 22.2969C8.41347 22.3044 8.1669 22.4128 7.98567 22.5989L6.57161 24.013C6.31869 24.2658 6.21988 24.6344 6.31241 24.9798C6.40495 25.3252 6.67475 25.595 7.02018 25.6876C7.36561 25.7801 7.73416 25.6813 7.98697 25.4284L9.40103 24.0143C9.69748 23.7267 9.78666 23.2865 9.6255 22.9062C9.46434 22.5259 9.08599 22.2838 8.67317 22.2969ZM23.2956 22.2969C22.8885 22.297 22.5221 22.5438 22.369 22.921C22.216 23.2983 22.3069 23.7306 22.5989 24.0143L24.013 25.4284C24.4038 25.8192 25.0375 25.8192 25.4284 25.4284C25.8192 25.0375 25.8192 24.4038 25.4284 24.013L24.0143 22.5989C23.8255 22.4052 23.5661 22.2962 23.2956 22.2969ZM15.9844 25.319C15.4326 25.3276 14.9921 25.7815 15 26.3333V28.3333C14.9949 28.6939 15.1844 29.0294 15.4959 29.2112C15.8074 29.393 16.1926 29.393 16.5041 29.2112C16.8156 29.0294 17.0051 28.6939 17 28.3333V26.3333C17.0039 26.0629 16.8981 25.8025 16.7067 25.6113C16.5154 25.4202 16.2548 25.3148 15.9844 25.319Z" fill="white"/>
</svg>
