<svg width="60" height="60" viewBox="0 0 60 60" fill="none" xmlns="http://www.w3.org/2000/svg">
<path d="M15.7178 3.69873L7.64647 25.2246L7.19237 26.4478L3.36913 36.6431L30 56.0156L56.6309 36.6431L52.8076 26.4478L44.2749 3.69873L37.2803 25.2246H22.7197L15.7178 3.69873ZM15.4687 15.0513L18.7793 25.2246H11.6528L15.4687 15.0513ZM44.5312 15.0513L48.3472 25.2246H41.2207L44.5312 15.0513ZM10.2466 28.9746H19.9951L26.4258 48.7793L7.88087 35.2881L10.2466 28.9746ZM23.9356 28.9746H36.0645L30 47.6294L23.9356 28.9746ZM40.0049 28.9746H49.7461L52.1192 35.2881L33.5669 48.7793L40.0049 28.9746Z" fill="#BDBDDD"/>
</svg>
