<svg width="32" height="32" viewBox="0 0 32 32" fill="none" xmlns="http://www.w3.org/2000/svg">
<path d="M24.7534 21.49C23.8614 23.1699 22.5333 24.5784 20.9087 25.5675C19.2841 26.5567 17.423 27.0899 15.5211 27.1111C12.637 27.0406 9.8984 25.8296 7.90546 23.7436C5.91253 21.6576 4.82778 18.8666 4.88893 15.9822C4.84024 13.2242 5.83433 10.5495 7.67246 8.49284C9.51059 6.43615 12.0573 5.14905 14.8034 4.88887C15.0019 4.87879 15.1996 4.92039 15.3772 5.00958C15.5548 5.09878 15.7062 5.23253 15.8167 5.39776C15.9243 5.56554 15.9848 5.75918 15.9919 5.95839C15.9989 6.15759 15.9522 6.35502 15.8567 6.52998C15.5138 7.15773 15.2453 7.82334 15.0567 8.51331C15.019 8.6549 14.9536 8.78762 14.8643 8.90383C14.7751 9.02005 14.6637 9.11746 14.5367 9.19046C14.4096 9.26347 14.2694 9.31062 14.124 9.3292C13.9787 9.34779 13.8311 9.33744 13.6898 9.29876C13.5484 9.26007 13.4161 9.19381 13.3005 9.1038C13.1849 9.01378 13.0882 8.90178 13.0161 8.77425C12.9439 8.64672 12.8977 8.50617 12.8801 8.3607C12.8624 8.21524 12.8738 8.06772 12.9134 7.92664C12.9545 7.77664 12.9989 7.62776 13.0456 7.4822C11.2905 8.09857 9.77348 9.2507 8.70864 10.7759C7.6438 12.3011 7.08499 14.1223 7.11115 15.9822C7.04982 18.2773 7.90038 20.5032 9.47662 22.1725C11.0529 23.8418 13.2263 24.8186 15.5211 24.8889C16.6991 24.8786 17.8611 24.6154 18.9285 24.117C19.9959 23.6186 20.9437 22.8966 21.7078 22C19.4568 21.6756 17.3744 20.6217 15.78 19C15.5779 18.7901 15.4663 18.5093 15.4692 18.218C15.4722 17.9266 15.5894 17.6481 15.7957 17.4424C16.002 17.2367 16.2809 17.1202 16.5722 17.1181C16.8636 17.116 17.1441 17.2284 17.3534 17.4311C18.1592 18.26 19.1345 18.9052 20.2126 19.3227C21.2906 19.7402 22.4461 19.92 23.6 19.85C23.8059 19.8325 24.0128 19.8699 24.1996 19.9583C24.3863 20.0467 24.5464 20.183 24.6634 20.3533C24.7797 20.517 24.8494 20.7091 24.8653 20.9092C24.8811 21.1094 24.8425 21.3101 24.7534 21.49ZM25.4445 17.1111V16.5555H26C26.2947 16.5555 26.5773 16.4385 26.7857 16.2301C26.9941 16.0217 27.1112 15.7391 27.1112 15.4444C27.1112 15.1497 26.9941 14.8671 26.7857 14.6587C26.5773 14.4504 26.2947 14.3333 26 14.3333H25.4445V13.7778C25.4445 13.4831 25.3274 13.2005 25.119 12.9921C24.9107 12.7837 24.6281 12.6666 24.3334 12.6666C24.0387 12.6666 23.7561 12.7837 23.5477 12.9921C23.3393 13.2005 23.2223 13.4831 23.2223 13.7778V14.3333H22.6667C22.372 14.3333 22.0894 14.4504 21.881 14.6587C21.6727 14.8671 21.5556 15.1497 21.5556 15.4444C21.5556 15.7391 21.6727 16.0217 21.881 16.2301C22.0894 16.4385 22.372 16.5555 22.6667 16.5555H23.2223V17.1111C23.2223 17.4058 23.3393 17.6884 23.5477 17.8968C23.7561 18.1051 24.0387 18.2222 24.3334 18.2222C24.6281 18.2222 24.9107 18.1051 25.119 17.8968C25.3274 17.6884 25.4445 17.4058 25.4445 17.1111ZM21 4.88887C20.7054 4.88887 20.4227 5.00593 20.2144 5.2143C20.006 5.42268 19.8889 5.70529 19.8889 5.99998V6.55553H19.3334C19.0387 6.55553 18.7561 6.6726 18.5477 6.88097C18.3393 7.08934 18.2223 7.37196 18.2223 7.66664C18.2223 7.96133 18.3393 8.24394 18.5477 8.45232C18.7561 8.66069 19.0387 8.77776 19.3334 8.77776H19.8889V9.33331C19.8889 9.628 20.006 9.91061 20.2144 10.119C20.4227 10.3274 20.7054 10.4444 21 10.4444C21.2947 10.4444 21.5773 10.3274 21.7857 10.119C21.9941 9.91061 22.1111 9.628 22.1111 9.33331V8.77776H22.6667C22.9614 8.77776 23.244 8.66069 23.4524 8.45232C23.6608 8.24394 23.7778 7.96133 23.7778 7.66664C23.7778 7.37196 23.6608 7.08934 23.4524 6.88097C23.244 6.6726 22.9614 6.55553 22.6667 6.55553H22.1111V5.99998C22.1111 5.70529 21.9941 5.42268 21.7857 5.2143C21.5773 5.00593 21.2947 4.88887 21 4.88887ZM14.3334 16C14.6281 16 14.9107 15.8829 15.119 15.6745C15.3274 15.4662 15.4445 15.1836 15.4445 14.8889V14.3333H16C16.2947 14.3333 16.5773 14.2162 16.7857 14.0079C16.9941 13.7995 17.1111 13.5169 17.1111 13.2222C17.1111 12.9275 16.9941 12.6449 16.7857 12.4365C16.5773 12.2282 16.2947 12.1111 16 12.1111H15.4445V11.5555C15.4445 11.2608 15.3274 10.9782 15.119 10.7699C14.9107 10.5615 14.6281 10.4444 14.3334 10.4444C14.0387 10.4444 13.7561 10.5615 13.5477 10.7699C13.3393 10.9782 13.2223 11.2608 13.2223 11.5555V12.1111H12.6667C12.372 12.1111 12.0894 12.2282 11.881 12.4365C11.6727 12.6449 11.5556 12.9275 11.5556 13.2222C11.5556 13.5169 11.6727 13.7995 11.881 14.0079C12.0894 14.2162 12.372 14.3333 12.6667 14.3333H13.2223V14.8889C13.2223 15.1836 13.3393 15.4662 13.5477 15.6745C13.7561 15.8829 14.0387 16 14.3334 16Z" fill="black" stroke="black" stroke-width="0.00075"/>
</svg>
