<svg width="60" height="60" viewBox="0 0 60 60" fill="none" xmlns="http://www.w3.org/2000/svg">
<path d="M49.2 4.79999H10.8C7.48805 4.79999 4.80005 7.48799 4.80005 10.8V49.2C4.80005 52.512 7.48805 55.2 10.8 55.2H49.2C52.512 55.2 55.2 52.512 55.2 49.2V10.8C55.2 7.48799 52.512 4.79999 49.2 4.79999ZM20.4 24V46.8H13.2V24H20.4ZM13.2 17.364C13.2 15.684 14.64 14.4 16.8 14.4C18.96 14.4 20.316 15.684 20.4 17.364C20.4 19.044 19.056 20.4 16.8 20.4C14.64 20.4 13.2 19.044 13.2 17.364ZM46.8 46.8H39.6C39.6 46.8 39.6 35.688 39.6 34.8C39.6 32.4 38.4 30 35.4 29.952H35.304C32.4 29.952 31.2 32.424 31.2 34.8C31.2 35.892 31.2 46.8 31.2 46.8H24V24H31.2V27.072C31.2 27.072 33.516 24 38.172 24C42.936 24 46.8 27.276 46.8 33.912V46.8Z" fill="#B172A5"/>
</svg>
